<?xml version="1.0" encoding="UTF-8" standalone="no"?>
<!-- Created with Inkscape (http://www.inkscape.org/) -->

<svg
   width="132.79564mm"
   height="143.06432mm"
   viewBox="0 0 132.79564 143.06432"
   version="1.1"
   id="svg1"
   xml:space="preserve"
   xmlns="http://www.w3.org/2000/svg"
   xmlns:svg="http://www.w3.org/2000/svg"><defs
     id="defs1" /><g
     id="layer1"
     transform="translate(-39.044126,-57.637385)"><g
       id="g1"
       transform="matrix(0.95221686,0,0,0.92474311,5.8379408,8.5203846)"><path
         id="path7"
         style="fill:#b6c6ef"
         d="m 150.76742,76.755539 c -0.15986,0 -0.31995,0.02428 -0.44122,0.07321 -0.24254,0.09787 -0.0438,0.178263 0.44122,0.178263 0.48507,0 0.68321,-0.0804 0.44067,-0.178263 -0.12127,-0.04893 -0.28082,-0.07321 -0.44067,-0.07321 z M 47.050605,82.35435 c -0.01821,-0.01821 -0.160907,0.08795 -0.44067,0.30735 -0.339543,0.266292 -0.617588,0.544236 -0.617588,0.617496 0,0.290342 0.289691,0.103695 0.750549,-0.483938 0.219405,-0.279762 0.325918,-0.4227 0.307709,-0.440908 z m 92.599685,0.519702 c -0.0592,-0.02472 -0.17299,-0.0094 -0.32996,0.05085 -0.30112,0.115551 -0.54758,0.272453 -0.54758,0.348703 0,0.28572 0.67254,0.125095 0.87971,-0.210116 0.0618,-0.09999 0.056,-0.164716 -0.002,-0.189439 z m -7.58038,4.065969 c -0.0182,-0.01821 -0.1609,0.0885 -0.44067,0.307909 -0.33954,0.266293 -0.61759,0.544236 -0.61759,0.617496 0,0.290342 0.28969,0.103701 0.75055,-0.483938 0.21941,-0.279757 0.32592,-0.423258 0.30771,-0.441467 z m -1.84517,1.115962 c -0.11465,0.04366 -0.24558,0.130921 -0.36523,0.251469 -0.34582,0.348409 -0.30524,0.389269 0.19754,0.197822 0.34789,-0.132479 0.54332,-0.330058 0.4347,-0.438673 -0.0543,-0.05431 -0.15235,-0.05428 -0.26701,-0.01062 z m -4.58632,2.469423 c -0.11465,0.04366 -0.24558,0.130926 -0.36524,0.251468 -0.34581,0.348409 -0.30523,0.389265 0.19755,0.197823 0.34789,-0.132479 0.54386,-0.330058 0.43524,-0.438674 -0.0543,-0.05431 -0.1529,-0.05428 -0.26755,-0.01062 z m -88.533806,1.520547 c -0.108616,-0.108616 -0.305482,0.0874 -0.437955,0.43532 -0.191447,0.502778 -0.151404,0.543074 0.196998,0.197264 0.241095,-0.239301 0.349572,-0.523968 0.240957,-0.632584 z m 83.116616,1.735134 c -0.12789,0.03647 -0.30417,0.110746 -0.4982,0.214587 -0.38805,0.207681 -0.7055,0.457339 -0.7055,0.554349 0,0.09701 0.31745,0.0065 0.7055,-0.201175 0.38806,-0.207681 0.70551,-0.457339 0.70551,-0.554349 0,-0.04851 -0.0794,-0.04988 -0.20731,-0.01341 z m -34.782478,0.07824 c -0.16485,0.101885 -0.20823,0.332934 -0.0966,0.513555 0.285265,0.461562 0.396711,0.409867 0.396711,-0.184969 0,-0.282511 -0.135257,-0.430472 -0.300111,-0.328586 z m 88.004678,2.739332 c -0.0371,0.03709 -0.0626,0.161103 -0.0705,0.366586 -0.0153,0.371885 0.0684,0.579927 0.1856,0.462702 0.1173,-0.117225 0.12948,-0.421515 0.0277,-0.676171 -0.0563,-0.140711 -0.10564,-0.190208 -0.14273,-0.153117 z m 0.41896,1.440636 c -0.0638,-0.02377 -0.10854,0.178813 -0.10854,0.542614 0,0.485072 0.0796,0.683443 0.17746,0.440908 0.0979,-0.242528 0.0979,-0.639287 0,-0.881816 -0.0245,-0.06063 -0.0477,-0.09378 -0.0689,-0.101706 z m 0.36469,1.777605 -0.17638,29.88006 c -0.097,16.43413 -0.0566,29.7602 0.0901,29.61352 0.14664,-0.14667 0.22598,-13.59267 0.17638,-29.88007 z m -41.45167,0.176028 c -0.0182,0.01821 0.0889,0.161142 0.30826,0.440902 0.46086,0.58763 0.75054,0.77485 0.75054,0.4845 0,-0.0733 -0.27803,-0.35121 -0.61758,-0.6175 -0.27976,-0.2194 -0.42301,-0.326112 -0.44122,-0.307902 z m 2.29344,1.940212 1.75074,1.85249 c 1.62665,1.72103 1.95316,2.01346 1.95316,1.75022 0,-0.0558 -0.83303,-0.88909 -1.85168,-1.85193 z m -16.40408,9.87378 -41.892331,0.002 -41.892336,0.002 -0.0038,25.04685 -0.0038,25.04795 0.09443,-24.95799 0.09389,-24.95743 41.801705,-0.0916 z m 1.02896,0.22409 c -0.12256,-0.005 -0.26233,0.0172 -0.38966,0.0682 -0.28142,0.11261 -0.19769,0.19657 0.21328,0.21347 0.37192,0.0153 0.58014,-0.0683 0.46292,-0.18552 -0.0586,-0.0587 -0.16399,-0.0911 -0.28654,-0.0961 z m -0.49983,8.59967 0.67186,0.79352 c 0.36963,0.43657 0.72697,0.79409 0.79397,0.79409 0.28225,0 0.0735,-0.28436 -0.67241,-0.91591 z m 9.94274,10.84221 c -0.062,0.032 -0.14746,0.12495 -0.2415,0.27047 -0.18809,0.29105 -0.3419,0.68779 -0.3419,0.88182 0,0.19403 0.15381,0.11445 0.3419,-0.17659 0.18808,-0.29104 0.3419,-0.6878 0.3419,-0.88182 0,-0.097 -0.0384,-0.12575 -0.1004,-0.0939 z m -3.06352,4.50353 c -0.0182,-0.0182 -0.16145,0.0885 -0.44121,0.30791 -0.33955,0.26629 -0.61759,0.54419 -0.61759,0.61749 0,0.29035 0.28969,0.10309 0.75055,-0.48449 0.2194,-0.27976 0.32646,-0.42269 0.30825,-0.44091 z m -1.41155,1.0584 c -0.0182,-0.0182 -0.16091,0.0885 -0.44067,0.30791 -0.33955,0.26629 -0.61759,0.54365 -0.61759,0.61694 0,0.29035 0.2897,0.1037 0.75055,-0.48393 0.2194,-0.27977 0.32591,-0.4227 0.30771,-0.44092 z m -36.250472,1.81282 c -0.04953,-0.01 -0.07818,0.0423 -0.07978,0.15703 -0.003,0.21019 0.100208,0.48759 0.22956,0.61694 0.129352,0.12934 7.154352,0.19728 15.610652,0.15088 l 15.37513,-0.0844 -15.32737,-0.0955 c -11.720034,-0.0733 -15.392924,-0.19883 -15.605227,-0.53312 -0.08335,-0.13124 -0.153443,-0.20217 -0.202969,-0.21179 z m 53.536962,2.77341 c -0.0182,0.0182 0.0883,0.16114 0.30771,0.44092 0.2663,0.33954 0.54375,0.61749 0.61705,0.61749 0.29034,0 0.10355,-0.29019 -0.48409,-0.75105 -0.27976,-0.2194 -0.42246,-0.32556 -0.44067,-0.30736 z m 13.78882,7.85254 c -0.0142,0.0213 0.14878,0.15458 0.47758,0.418 0.71976,0.57665 0.90304,0.65496 0.90304,0.38502 0,-0.0902 -0.3574,-0.3372 -0.79396,-0.54876 -0.38111,-0.18468 -0.57249,-0.27557 -0.58666,-0.25426 z m -24.01972,3.08357 c -0.0182,-0.0182 -0.16091,0.0885 -0.44067,0.30789 -0.33955,0.26631 -0.61759,0.54365 -0.61759,0.61694 0,0.29035 0.28969,0.10371 0.75055,-0.48393 0.2194,-0.27977 0.32592,-0.42269 0.30771,-0.4409 z m 36.01385,3.61947 c -0.0142,0.0213 0.14932,0.15463 0.47811,0.41799 0.71976,0.57664 0.90251,0.65442 0.90251,0.38447 0,-0.0902 -0.35685,-0.3372 -0.79342,-0.54876 -0.38111,-0.18468 -0.57304,-0.27501 -0.5872,-0.2537 z m -67.917325,2.10842 c -6.196377,-0.0515 -11.387604,0.0277 -11.53609,0.17603 -0.148486,0.1482 4.920969,0.19022 11.265827,0.0933 l 11.536628,-0.17602 z m 14.970275,1.68037 c -0.0182,0.0182 0.0883,0.16115 0.3077,0.44091 0.46086,0.58764 0.75055,0.77429 0.75055,0.48394 0,-0.0733 -0.27749,-0.35065 -0.61704,-0.61694 -0.27977,-0.2194 -0.423,-0.32612 -0.44121,-0.30791 z m 28.05033,1.57811 c -0.0592,0.0247 -0.065,0.09 -0.002,0.19 0.11854,0.1918 0.36501,0.3487 0.54759,0.3487 0.50738,0 0.3957,-0.25332 -0.21546,-0.48785 -0.15697,-0.0602 -0.27076,-0.0756 -0.32995,-0.0508 z m 1.26068,0.63035 c -0.0142,0.0213 0.14932,0.15457 0.47811,0.41799 0.71976,0.57665 0.90251,0.65442 0.90251,0.38447 0,-0.0902 -0.35685,-0.3372 -0.79342,-0.54876 -0.38111,-0.18468 -0.57304,-0.27501 -0.5872,-0.2537 z m -108.940263,0.0413 c -0.03709,0.0371 -0.06209,0.16111 -0.07055,0.36659 -0.01532,0.37186 0.06783,0.57993 0.185059,0.4627 0.11722,-0.11722 0.130127,-0.42151 0.02822,-0.67617 -0.05631,-0.14072 -0.105638,-0.19021 -0.142729,-0.15312 z m 87.743093,2.33642 c -0.0182,0.0182 0.0883,0.16115 0.30771,0.44091 0.2663,0.33955 0.54429,0.61694 0.61759,0.61694 0.29035,0 0.10356,-0.28964 -0.48408,-0.7505 -0.27977,-0.2194 -0.42301,-0.32556 -0.44122,-0.30735 z m 25.7531,0 c -0.0182,0.0182 0.0883,0.16115 0.30771,0.44091 0.46086,0.58764 0.75055,0.77429 0.75055,0.48394 0,-0.0733 -0.27804,-0.35121 -0.61759,-0.6175 -0.27976,-0.2194 -0.42246,-0.32556 -0.44067,-0.30735 z m 2.85241,1.85528 c -0.0142,0.0213 0.14933,0.15459 0.47812,0.418 0.71976,0.57665 0.9025,0.65442 0.9025,0.38447 0,-0.0902 -0.35686,-0.33664 -0.79342,-0.5482 -0.38111,-0.18469 -0.57304,-0.27558 -0.5872,-0.25427 z m 1.97704,0.97235 c -0.25246,0.003 -0.20886,0.14155 0.10909,0.34703 0.67773,0.43798 0.79981,0.43798 0.52912,0 -0.11992,-0.19403 -0.40713,-0.35003 -0.63821,-0.34703 z m 1.95317,1.18246 c -0.0487,0.0619 0.53317,0.49831 1.59227,1.14949 0.7294,0.44846 1.40572,0.81544 1.50272,0.81532 0.30451,-3.6e-4 -1.18709,-1.06565 -2.29289,-1.63734 -0.51647,-0.26701 -0.7729,-0.36459 -0.8021,-0.32747 z m 4.18364,2.43142 c -0.0142,0.0213 0.14933,0.15458 0.47812,0.418 0.71976,0.57664 0.9025,0.65442 0.9025,0.38447 0,-0.0902 -0.35686,-0.3372 -0.79342,-0.54876 -0.38112,-0.18469 -0.57304,-0.27502 -0.5872,-0.25371 z m 9.59324,0.39453 c -0.0371,0.0371 -0.0623,0.16054 -0.0705,0.36603 -0.0153,0.37192 0.0678,0.58048 0.18506,0.46326 0.1173,-0.11723 0.12949,-0.42151 0.0277,-0.67617 -0.0563,-0.14072 -0.1051,-0.19022 -0.14219,-0.15312 z m -129.391763,0.043 1.750738,1.85193 c 0.962839,1.01865 1.796421,1.85192 1.852221,1.85192 0.26324,0 -0.02975,-0.32691 -1.750737,-1.95363 z m 123.679343,1.67925 c -0.0142,0.0213 0.14878,0.15458 0.47757,0.418 0.71976,0.57665 0.90305,0.65443 0.90305,0.38447 0,-0.0902 -0.35741,-0.33721 -0.79397,-0.54876 -0.38105,-0.18469 -0.57249,-0.27502 -0.58665,-0.25371 z m 2.76232,1.36296 c -0.12255,-0.005 -0.26232,0.0172 -0.38965,0.0682 -0.28142,0.11261 -0.19768,0.19601 0.21328,0.21291 0.37193,0.0153 0.58014,-0.0677 0.46292,-0.18497 -0.0586,-0.0587 -0.16399,-0.0911 -0.28655,-0.0961 z m -19.72646,3.48424 c -0.0182,0.0182 0.0883,0.16114 0.30771,0.44091 0.26629,0.33955 0.54429,0.61694 0.61759,0.61694 0.29034,0 0.10356,-0.28964 -0.48408,-0.7505 -0.27977,-0.2194 -0.42301,-0.32556 -0.44122,-0.30735 z m 6.09611,3.66138 c -0.0371,0.0371 -0.0626,0.16055 -0.0711,0.36603 -0.0153,0.37192 0.0684,0.57993 0.1856,0.4627 0.1173,-0.11722 0.12948,-0.42151 0.0277,-0.67617 -0.0563,-0.14071 -0.1051,-0.18965 -0.14219,-0.15256 z m -79.120742,0.57168 c -0.01821,0.0182 0.0883,0.1612 0.307708,0.4409 0.266292,0.33955 0.543786,0.6175 0.617046,0.6175 0.290342,0 0.103548,-0.28963 -0.484085,-0.75049 -0.279762,-0.21942 -0.422461,-0.32612 -0.440669,-0.30791 z m 7.055591,4.58623 c -0.01821,0.0182 0.0883,0.16115 0.307709,0.44091 0.266287,0.33949 0.543785,0.61749 0.617045,0.61749 0.290348,0 0.103547,-0.28963 -0.484085,-0.75049 -0.279763,-0.21942 -0.42246,-0.32612 -0.440669,-0.30791 z m 64.552071,0.35038 c -0.0298,-0.0134 -0.19684,0.10431 -0.52316,0.34367 -0.38806,0.28464 -0.77178,0.56204 -0.85258,0.61694 -0.0808,0.0549 0.0188,0.10003 0.22142,0.10003 0.20261,0 0.58628,-0.27795 0.85258,-0.6175 0.22392,-0.28552 0.33148,-0.42973 0.30174,-0.44314 z m -81.133063,0.002 c -0.01821,0.0182 0.08885,0.16115 0.308251,0.44091 0.460858,0.58764 0.750549,0.77485 0.750549,0.4845 0,-0.0733 -0.278046,-0.35121 -0.617588,-0.6175 -0.279763,-0.2194 -0.423004,-0.32612 -0.441212,-0.30791 z m 70.826713,6.05481 c -0.11465,0.0437 -0.24558,0.13092 -0.36523,0.25147 -0.34582,0.34841 -0.30524,0.3887 0.19754,0.19726 0.34789,-0.13248 0.54386,-0.32949 0.43524,-0.43811 -0.0543,-0.0543 -0.15289,-0.0543 -0.26755,-0.0106 z M 75.869393,194.19 c -0.252453,0.003 -0.208874,0.14155 0.109082,0.34703 0.677724,0.43798 0.799816,0.43798 0.529128,0 C 76.387687,194.343 76.100471,194.187 75.869393,194.19 Z m 53.378497,2.11066 c -0.0182,-0.0182 -0.16145,0.0885 -0.44121,0.30791 -0.33955,0.26629 -0.61705,0.54364 -0.61705,0.61694 0,0.29035 0.28969,0.1037 0.75055,-0.48394 0.21941,-0.27976 0.32592,-0.4227 0.30771,-0.44091 z m -3.60947,2.17381 c -0.11465,0.0437 -0.24558,0.13148 -0.36524,0.25203 -0.34581,0.34841 -0.30523,0.38871 0.19755,0.19726 0.34789,-0.13248 0.54386,-0.3295 0.43524,-0.43811 -0.0543,-0.0543 -0.1529,-0.0548 -0.26755,-0.0112 z m -32.546026,6.1079 c -0.0587,0.0249 -0.06339,0.0891 -0.0016,0.18888 0.118542,0.1918 0.365004,0.3487 0.547581,0.3487 0.507441,0 0.395707,-0.25276 -0.215451,-0.48729 -0.156974,-0.0602 -0.271307,-0.0751 -0.330502,-0.0503 z m 2.46981,1.41102 c -0.0587,0.0249 -0.06364,0.0891 -0.0022,0.18888 0.118542,0.19181 0.365004,0.3487 0.547581,0.3487 0.507441,0 0.395708,-0.25276 -0.215451,-0.48729 -0.156973,-0.0602 -0.270764,-0.0751 -0.329959,-0.0503 z m 2.964749,0.93434 c -0.122554,-0.005 -0.262326,0.0172 -0.389656,0.0682 -0.281423,0.11261 -0.197681,0.19601 0.213279,0.21291 0.371891,0.0153 0.580145,-0.0678 0.46292,-0.18497 -0.05861,-0.0587 -0.163995,-0.0906 -0.286543,-0.0956 z m 10.935867,0 c -0.12255,-0.005 -0.26233,0.0172 -0.38966,0.0682 -0.28137,0.11261 -0.19768,0.19601 0.21328,0.21291 0.37192,0.0153 0.58015,-0.0678 0.46292,-0.18497 -0.0586,-0.0587 -0.16399,-0.0906 -0.28654,-0.0956 z m -1.77679,0.35429 c -0.19182,-0.002 -0.39658,0.019 -0.5682,0.0637 -0.34324,0.0894 -0.14792,0.16847 0.43416,0.17547 0.58208,0.007 0.86294,-0.066 0.6241,-0.16262 -0.11943,-0.0483 -0.29823,-0.0736 -0.49006,-0.076 z m -7.718762,5.6e-4 c -0.159853,0 -0.319402,0.0243 -0.440669,0.0732 -0.242534,0.0978 -0.0444,0.17826 0.440669,0.17826 0.485072,0 0.683752,-0.0804 0.441212,-0.17826 -0.12127,-0.0489 -0.28136,-0.0732 -0.441212,-0.0732 z m 2.390572,0.40068 c -0.82974,0.0745 -0.23836,0.13702 1.31387,0.13802 1.55223,0.001 2.23117,-0.06 1.5087,-0.13579 -0.72248,-0.0755 -1.99282,-0.0752 -2.82257,-0.002 z" /><path
         id="path6"
         style="fill:#96ade8"
         d="m 165.05498,84.9998 0.67185,0.794083 c 0.63155,0.745926 0.91553,0.954012 0.91553,0.6717 0,-0.06694 -0.3574,-0.423902 -0.79396,-0.793523 z M 42.411096,85.529002 c -0.09701,0 -0.549374,0.397307 -1.005073,0.882376 -0.455698,0.485069 -0.748788,0.881817 -0.651778,0.881817 0.09701,0 0.548832,-0.396748 1.004531,-0.881817 0.455698,-0.485069 0.74933,-0.882376 0.65232,-0.882376 z m -1.534202,1.940221 -1.146174,1.03661 c -0.630589,0.569877 -1.146716,1.085428 -1.146716,1.146138 0,0.272542 0.291057,0.03267 1.256884,-1.036051 z m 126.647346,0 0.85529,0.97011 c 0.47038,0.533576 0.90714,0.970111 0.97034,0.970111 0.27667,0 0.0514,-0.285316 -0.85529,-1.084669 z m 1.94014,2.293394 c -0.0182,0.01821 0.0883,0.161146 0.30771,0.440909 0.26629,0.339548 0.54429,0.617495 0.61759,0.617495 0.29035,0 0.10355,-0.289636 -0.48409,-0.750494 -0.27976,-0.219404 -0.423,-0.326118 -0.44121,-0.30791 z m -80.115503,4.625348 c -0.639409,-3.06e-4 -1.292433,0.01734 -1.805007,0.05309 -1.025149,0.07149 -0.27637,0.130404 1.663906,0.131322 1.940277,9.19e-4 2.778745,-0.05724 1.863618,-0.129646 -0.457563,-0.03622 -1.083108,-0.05446 -1.722517,-0.05476 z m 56.291143,24.818285 c -0.0638,-0.0238 -0.10854,0.17881 -0.10854,0.54261 0,0.48507 0.0801,0.68345 0.17801,0.44091 0.0979,-0.24253 0.0979,-0.63984 0,-0.88237 -0.0245,-0.0606 -0.0482,-0.0932 -0.0695,-0.10115 z m 0.39834,2.84271 c -0.0469,-0.13095 -0.0802,0.65434 -0.0809,2.10955 h -5.4e-4 c -9.2e-4,1.9403 0.0579,2.77879 0.13025,1.86366 0.0727,-0.91513 0.0731,-2.50268 0.002,-3.52783 -0.0179,-0.25629 -0.0349,-0.40173 -0.0505,-0.44538 z m -15.92053,2.44875 c -0.0638,-0.0238 -0.10854,0.17881 -0.10854,0.54261 0,0.48507 0.0801,0.68344 0.17801,0.44091 0.0979,-0.24254 0.0979,-0.63928 0,-0.88182 -0.0245,-0.0606 -0.0482,-0.0938 -0.0695,-0.1017 z m -8.11385,0.35261 c -0.0638,-0.0238 -0.10854,0.17882 -0.10854,0.54262 0,0.48508 0.0801,0.68344 0.17801,0.44091 0.0979,-0.24254 0.0979,-0.63928 0,-0.88182 -0.0245,-0.0606 -0.0482,-0.0938 -0.0695,-0.10171 z m 8.13013,1.54682 c -0.0579,-0.0333 -0.0988,0.25067 -0.0988,0.75999 0,0.67906 0.0725,0.95649 0.16118,0.61694 0.0887,-0.33954 0.0887,-0.89489 0,-1.23444 -0.0222,-0.0849 -0.0431,-0.1314 -0.0624,-0.14249 z m -8.54855,0.54037 c -0.0371,0.0371 -0.0626,0.16111 -0.0711,0.36659 -0.0153,0.37193 0.0684,0.57992 0.1856,0.4627 0.1173,-0.11723 0.12959,-0.42151 0.0277,-0.67617 -0.0563,-0.14071 -0.10509,-0.19021 -0.14219,-0.15312 z m 8.11385,2.11681 c -0.0371,0.0371 -0.0626,0.16054 -0.0711,0.36603 -0.0153,0.37192 0.0684,0.58049 0.1856,0.46326 0.1173,-0.11722 0.12959,-0.4215 0.0277,-0.67617 -0.0563,-0.14071 -0.10509,-0.19021 -0.14219,-0.15312 z m 15.94061,0.0296 c -0.0638,-0.0238 -0.10854,0.17881 -0.10854,0.54261 0,0.48507 0.0801,0.68345 0.17801,0.44091 0.0979,-0.24253 0.0979,-0.63929 0,-0.88182 -0.0245,-0.0606 -0.0482,-0.0938 -0.0695,-0.1017 z m -0.35275,2.11625 c -0.0638,-0.0238 -0.10854,0.17882 -0.10854,0.54261 0,0.48508 0.0801,0.684 0.17801,0.44147 0.0979,-0.24254 0.0979,-0.63984 0,-0.88238 -0.0245,-0.0606 -0.0482,-0.0938 -0.0695,-0.1017 z m -49.112362,0.27885 c -4.026072,0.0566 -0.731722,0.10282 7.320422,0.10282 8.05215,0 11.34596,-0.0462 7.31989,-0.10282 -4.02608,-0.0566 -10.61424,-0.0566 -14.640312,0 z m -24.555368,0.18497 c -0.03434,-0.7861 -0.05863,6.29261 -0.05861,18.95291 2e-5,16.8804 0.04341,23.73392 0.09606,15.23063 0.05265,-8.5033 0.05267,-22.31437 0,-30.69148 -0.01317,-2.09428 -0.026,-3.23003 -0.03745,-3.49206 z m 16.915836,1.67422 c -0.04686,-0.13095 -0.08017,0.65378 -0.08086,2.10899 -9.19e-4,1.9403 0.05729,2.77879 0.129704,1.86366 0.07244,-0.91513 0.07366,-2.50212 0.0022,-3.52727 -0.01787,-0.25629 -0.03539,-0.40173 -0.05101,-0.44538 z m 38.596004,1.57978 c -0.0182,-0.0182 -0.16146,0.0885 -0.44122,0.30791 -0.33955,0.2663 -0.61704,0.5442 -0.61704,0.6175 0,0.29034 0.28969,0.10314 0.75055,-0.4845 0.2194,-0.27976 0.32591,-0.4227 0.30771,-0.44091 z m 6.32078,16.97693 c -0.12256,-0.005 -0.26232,0.0172 -0.38966,0.0682 -0.28142,0.11262 -0.19823,0.19657 0.21274,0.21347 0.37192,0.0153 0.58069,-0.0683 0.46346,-0.18553 -0.0586,-0.0587 -0.16399,-0.0911 -0.28654,-0.0961 z m -21.84298,6.70472 c -0.15985,0 -0.31994,0.0248 -0.44121,0.0738 -0.24253,0.0978 -0.0439,0.17771 0.44121,0.17771 0.48507,0 0.6832,-0.0798 0.44067,-0.17771 -0.12127,-0.0489 -0.28081,-0.0738 -0.44067,-0.0738 z m -23.411361,6.44263 c -0.03641,-0.44215 -0.06241,3.32556 -0.06241,10.09227 0,9.02229 0.04564,12.71349 0.101484,8.20235 0.05584,-4.51114 0.05584,-11.89299 0,-16.40414 -0.01396,-1.12778 -0.02694,-1.7431 -0.03907,-1.89048 z" /><path
         id="path5"
         style="fill:#6e8ee0"
         d="m 79.777347,82.058734 c -0.114654,0.04366 -0.245584,0.130921 -0.365235,0.251469 -0.345816,0.348409 -0.305236,0.38927 0.197542,0.197822 0.347912,-0.132479 0.543857,-0.330057 0.435242,-0.438673 -0.05431,-0.05431 -0.152895,-0.05428 -0.267549,-0.01062 z m 33.062133,1.168491 c -0.0592,-0.02472 -0.17299,-0.0094 -0.32996,0.05085 -0.30112,0.115551 -0.54758,0.272453 -0.54758,0.348703 0,0.28572 0.67199,0.125095 0.87916,-0.210116 0.0618,-0.09999 0.0576,-0.164716 -0.002,-0.18944 z m -4.58633,2.469423 c -0.0592,-0.02472 -0.17298,-0.0094 -0.32996,0.05085 -0.30112,0.115549 -0.54758,0.272443 -0.54758,0.348703 0,0.285719 0.67254,0.125094 0.87971,-0.210116 0.0618,-0.09999 0.057,-0.164717 -0.002,-0.18944 z m -5.54527,3.065124 c -0.11465,0.04366 -0.24558,0.130922 -0.36523,0.251469 -0.34582,0.348408 -0.30524,0.38871 0.19754,0.197263 0.34789,-0.13248 0.54386,-0.329499 0.43524,-0.438114 -0.0543,-0.05431 -0.15289,-0.05428 -0.26755,-0.01062 z m -4.585779,2.469423 c -0.114654,0.04366 -0.245584,0.130921 -0.365234,0.251468 -0.345817,0.348409 -0.30578,0.38871 0.196998,0.197264 0.347912,-0.132479 0.543859,-0.329499 0.435243,-0.438115 -0.05431,-0.05431 -0.152353,-0.05427 -0.267007,-0.01062 z m 22.609799,2.500716 c -0.002,-0.03919 -0.1705,0.06201 -0.44881,0.275498 -0.63901,0.490167 -0.61107,0.529358 0.52913,0.735965 1.94093,0.351703 2.36553,0.268762 0.9215,-0.179381 -0.76921,-0.238716 -1.22009,-0.556 -1.05826,-0.744906 0.0388,-0.04526 0.057,-0.07411 0.0564,-0.08718 z m -78.686038,0.352615 c -3.165167,0.05853 -0.675011,0.106594 5.533871,0.106735 6.208883,1.41e-4 8.798464,-0.04751 5.754749,-0.106176 -3.043716,-0.05867 -8.123452,-0.05909 -11.28862,-5.59e-4 z m 84.270928,2.033544 c -0.25246,0.0032 -0.20887,0.141549 0.10908,0.347026 0.67773,0.437983 0.79982,0.437983 0.52913,0 -0.11992,-0.194026 -0.40713,-0.350026 -0.63821,-0.347026 z m 9.10481,5.81507 1.39419,1.49932 c 0.76698,0.8246 1.44187,1.49931 1.49947,1.49931 0.26691,0 1.5e-4,-0.30692 -1.39419,-1.60381 z m -11.64192,12.34768 0.85529,0.97011 c 0.47039,0.53358 0.90714,0.97011 0.97034,0.97011 0.27668,0 0.0515,-0.28588 -0.85528,-1.08523 z m 2.99894,2.99862 c -0.0182,0.0182 0.0883,0.16114 0.30771,0.44091 0.26629,0.33955 0.54375,0.61693 0.61705,0.61693 0.29035,0 0.10355,-0.28963 -0.48409,-0.75049 -0.27976,-0.2194 -0.42246,-0.32556 -0.44067,-0.30735 z m -43.630588,2.55772 c -6.562573,0.0537 -1.296066,0.0978 11.703783,0.0978 12.999845,0 18.369545,-0.044 11.932255,-0.0978 -6.43727,-0.0538 -17.073465,-0.0538 -23.636038,0 z m 36.045868,0.44035 0.85529,0.97066 c 0.47039,0.53357 0.9066,0.97012 0.9698,0.97012 0.27668,0 0.0515,-0.28587 -0.85529,-1.08523 z m 26.73321,7.36579 c -0.0371,0.0371 -0.0621,0.16055 -0.0705,0.36603 h -5.4e-4 c -0.0153,0.37192 0.0684,0.58049 0.1856,0.46326 0.1173,-0.11722 0.12958,-0.42151 0.0277,-0.67617 -0.0563,-0.14071 -0.10509,-0.19021 -0.14219,-0.15312 z m -25.14582,1.98325 c -0.0182,-0.0182 -0.16145,0.0879 -0.44121,0.30735 -0.33955,0.26629 -0.61705,0.5442 -0.61705,0.6175 0,0.29035 0.28969,0.1037 0.75055,-0.48394 0.21941,-0.27976 0.32592,-0.4227 0.30771,-0.44091 z m 7.05559,4.23306 c -0.0182,-0.0182 -0.16145,0.0885 -0.44121,0.30791 -0.33955,0.26629 -0.61705,0.54419 -0.61705,0.61749 0,0.29035 0.2897,0.10315 0.75055,-0.48449 0.21941,-0.27976 0.32592,-0.4227 0.30771,-0.44091 z m -3.52807,3.17521 c -0.0182,-0.0182 -0.1609,0.0885 -0.44067,0.30791 -0.33955,0.26629 -0.61758,0.54364 -0.61758,0.61694 0,0.29035 0.28969,0.1037 0.75054,-0.48394 0.21941,-0.27976 0.32592,-0.4227 0.30771,-0.44091 z m 8.4666,18.34436 c -0.0182,0.0182 0.0889,0.16115 0.30826,0.44091 0.46086,0.58764 0.75054,0.77485 0.75054,0.4845 0,-0.0733 -0.27803,-0.35121 -0.61758,-0.6175 -0.27976,-0.2194 -0.42301,-0.32611 -0.44122,-0.30791 z m 7.40835,0 c -0.0182,0.0182 0.0888,0.16115 0.30825,0.44091 0.46086,0.58764 0.75055,0.77485 0.75055,0.4845 0,-0.0733 -0.27804,-0.35121 -0.61759,-0.6175 -0.27976,-0.2194 -0.423,-0.32611 -0.44121,-0.30791 z m 3.00328,1.93128 c -0.0592,0.0247 -0.064,0.0895 -0.002,0.18944 0.11855,0.19181 0.36501,0.34871 0.54758,0.34871 0.50745,0 0.39571,-0.25278 -0.21545,-0.48729 -0.15698,-0.0602 -0.27077,-0.0756 -0.32996,-0.0509 z m -49.305023,1.33279 c -3.152949,0.0585 -0.573398,0.10617 5.732498,0.10617 6.305895,0 8.885445,-0.0477 5.732495,-0.10617 -3.15294,-0.0585 -8.312045,-0.0585 -11.464993,0 z m 32.082023,8.03023 c -0.25245,0.003 -0.20887,0.14212 0.10908,0.34759 0.67773,0.43799 0.79982,0.43799 0.52913,0 -0.11991,-0.19402 -0.40713,-0.35059 -0.63821,-0.34759 z m 1.90323,1.14446 c -0.0142,0.0213 0.14933,0.15458 0.47812,0.418 0.71976,0.57664 0.9025,0.65498 0.9025,0.38503 0,-0.0902 -0.35739,-0.33721 -0.79396,-0.54876 -0.38111,-0.18469 -0.5725,-0.27558 -0.58666,-0.25427 z m 36.4225,1.11429 c 0.0153,0.0488 0.20893,0.21567 0.58883,0.52641 0.98768,0.80787 1.20138,0.90134 0.88297,0.38614 -0.11927,-0.19298 -0.56521,-0.52117 -0.99097,-0.72926 -0.33345,-0.16297 -0.49617,-0.23211 -0.48083,-0.18329 z m -125.882143,0.73429 2.105661,2.2051 c 1.955942,2.04812 2.304288,2.3663 2.304288,2.10563 0,-0.0546 -0.992302,-1.04701 -2.204975,-2.2051 z m 93.693213,0.62084 c -0.0142,0.0213 0.14878,0.15458 0.47758,0.418 0.71975,0.57665 0.90304,0.65498 0.90304,0.38503 0,-0.0902 -0.3574,-0.3372 -0.79396,-0.54876 -0.38111,-0.18469 -0.5725,-0.27558 -0.58666,-0.25427 z m 36.9728,1.67255 c -0.097,0 -0.71481,0.55533 -1.37302,1.23443 -0.6582,0.67909 -1.11727,1.23499 -1.02027,1.23499 0.097,0 0.71481,-0.5559 1.37302,-1.23499 0.65821,-0.6791 1.11727,-1.23443 1.02027,-1.23443 z m -32.38702,0.79688 c -0.0142,0.0213 0.14933,0.15458 0.47812,0.41799 0.71976,0.57665 0.9025,0.65498 0.9025,0.38503 0,-0.0902 -0.35686,-0.3372 -0.79342,-0.54876 -0.38111,-0.18468 -0.57303,-0.27557 -0.5872,-0.25426 z m 4.23358,2.46942 c -0.0142,0.0213 0.14877,0.15458 0.47757,0.418 0.71976,0.57665 0.90305,0.65497 0.90305,0.38502 0,-0.0902 -0.3574,-0.3372 -0.79397,-0.54876 -0.38111,-0.18468 -0.57249,-0.27557 -0.58665,-0.25426 z m 3.88027,2.11681 c -0.0142,0.0213 0.14932,0.15457 0.47812,0.41799 0.71975,0.57664 0.9025,0.65442 0.9025,0.38447 0,-0.0902 -0.35686,-0.33664 -0.79342,-0.5482 -0.38111,-0.18468 -0.57304,-0.27557 -0.5872,-0.25426 z m 2.97289,1.83963 c -0.0592,0.0247 -0.064,0.0894 -0.002,0.18944 0.11854,0.1918 0.36501,0.3487 0.54758,0.3487 0.50745,0 0.39571,-0.25276 -0.21545,-0.48729 -0.15697,-0.0602 -0.27076,-0.0756 -0.32996,-0.0508 z m 1.26069,0.62979 c -0.0142,0.0213 0.14877,0.15458 0.47757,0.418 0.71976,0.57665 0.90304,0.65497 0.90304,0.38502 0,-0.0902 -0.3574,-0.3372 -0.79396,-0.54876 -0.38111,-0.18468 -0.57249,-0.27557 -0.58665,-0.25426 z m 2.61959,1.48702 c -0.0592,0.0247 -0.0634,0.0894 -0.002,0.18944 0.11854,0.19181 0.36446,0.3487 0.54704,0.3487 0.50745,0 0.39571,-0.25277 -0.21545,-0.48729 -0.15698,-0.0602 -0.27077,-0.0756 -0.32996,-0.0508 z m -76.703032,2.39342 c -0.01416,0.0213 0.149323,0.15458 0.478115,0.418 0.71976,0.57664 0.902504,0.65497 0.902504,0.38503 0,-0.0902 -0.357403,-0.33721 -0.793964,-0.54877 -0.38111,-0.18468 -0.572493,-0.27557 -0.586655,-0.25426 z m 5.152357,3.08915 c -0.252453,0.003 -0.208874,0.14155 0.109081,0.34703 0.677729,0.43798 0.799817,0.43798 0.529129,0 -0.119916,-0.19403 -0.407127,-0.35003 -0.63821,-0.34703 z m 3.666997,2.55549 c -0.01416,0.0213 0.149322,0.15457 0.478115,0.41799 0.719758,0.57665 0.902503,0.65442 0.902503,0.38447 0,-0.0902 -0.35686,-0.33664 -0.793421,-0.5482 -0.38111,-0.18469 -0.573036,-0.27558 -0.587197,-0.25426 z m 3.123758,1.91172 c -0.124108,0.0245 -0.175574,0.0813 -0.124277,0.16429 0.180651,0.2923 1.556452,0.43949 1.556452,0.16653 0,-0.0744 -0.392372,-0.21016 -0.87157,-0.30176 -0.239599,-0.0458 -0.436497,-0.0536 -0.560605,-0.0291 z" /><path
         id="path3"
         style="fill:#2e5cd4"
         d="m 105.59231,53.154363 c -5.36579,-0.238911 -8.099129,0.525239 -14.3326,4.006735 -9.646605,5.387788 -12.655563,7.097819 -13.870226,7.882705 -1.750784,1.131316 -10.638198,6.374452 -10.805078,6.374452 -0.07635,0 -1.763886,0.999881 -3.750572,2.222425 -3.547777,2.183189 -4.730054,2.880163 -12.091811,7.126064 -2.018489,1.164165 -4.749556,2.776931 -6.06897,3.583708 -2.956191,1.80761 -6.546709,5.814147 -7.774121,8.675111 l -0.416247,0.970111 h 11.111158 11.111159 l 4.314976,-2.440364 c 2.3734,-1.34215 5.426593,-3.070361 6.784786,-3.840765 1.358193,-0.770405 3.739608,-2.075066 5.29183,-2.899155 1.55222,-0.824089 3.243691,-1.794098 3.758712,-2.155925 0.515022,-0.361827 1.022808,-0.658289 1.128265,-0.658289 0.191222,0 2.305955,-1.151834 10.987967,-5.986073 2.522359,-1.404476 6.332297,-3.51028 8.466601,-4.678994 2.134311,-1.168715 4.039541,-2.240713 4.233571,-2.382247 0.19402,-0.141534 1.94,-1.095833 3.88028,-2.120719 1.94028,-1.024885 3.76614,-2.047292 4.05719,-2.27216 0.29104,-0.224868 1.40212,-0.866526 2.46927,-1.426107 1.94507,-1.019933 4.53443,-2.462822 5.8329,-3.250093 0.68855,-0.417501 0.68843,-0.42447 -0.0119,-0.942728 -0.38805,-0.287156 -1.81712,-1.1179 -3.17532,-1.846339 -1.35819,-0.728439 -2.55684,-1.453813 -2.66409,-1.611635 -0.10726,-0.157822 -1.21887,-0.709273 -2.46981,-1.225491 -1.81404,-0.748592 -3.02797,-0.971992 -5.99788,-1.104227 z m 28.48123,14.296834 c -0.42292,9.63e-4 -2.27689,0.87002 -4.12014,1.93128 -5.81032,3.345295 -12.09918,6.84691 -14.11119,7.856999 -1.06715,0.535744 -2.01951,1.087759 -2.11651,1.226609 -0.097,0.138851 -2.00226,1.241874 -4.23357,2.45154 -2.23132,1.209665 -6.04126,3.312576 -8.4666,4.673406 -2.425347,1.36083 -5.759114,3.192038 -7.408349,4.068764 -3.521737,1.872141 -7.761096,4.358791 -7.761096,4.552701 0,0.07475 1.405378,0.136352 3.122673,0.136352 3.354303,0 4.744669,-0.338182 6.878673,-1.673105 1.351887,-0.845672 2.372485,-1.420012 6.402729,-3.601032 1.16417,-0.630004 2.99005,-1.662691 4.05719,-2.295071 1.06715,-0.632382 4.16283,-2.390947 6.87922,-3.907824 2.71638,-1.516877 6.52632,-3.659569 8.4666,-4.76114 7.53624,-4.27862 13.10873,-7.365508 14.37548,-7.963176 0.7276,-0.34329 1.32309,-0.740667 1.32309,-0.882934 0,-0.446269 -2.48253,-1.815169 -3.2882,-1.813369 z M 151.0024,77.1998 c -0.65963,-0.04192 -1.31013,0.217566 -2.25327,0.759436 -0.92712,0.532663 -3.19404,1.826045 -5.0373,2.874007 -1.84326,1.047962 -3.82787,2.188716 -4.40995,2.534805 -0.58208,0.346089 -2.32806,1.312932 -3.88028,2.14866 -1.55223,0.835728 -3.06065,1.715033 -3.35169,1.954191 -0.29104,0.23916 -2.35446,1.422302 -4.58578,2.629245 -2.23132,1.206942 -4.73931,2.593741 -5.57349,3.08133 l -1.51684,0.886288 2.9349,1.012021 c 8.87601,3.059425 15.86225,8.996157 19.68793,16.731047 0.95967,1.94028 2.06425,4.78382 2.45462,6.31857 1.37158,5.39234 0.71058,13.3323 -1.61073,19.34745 -0.69237,1.79412 -1.28662,3.49679 -1.32092,3.78376 -0.0603,0.50436 1.54445,1.46612 12.63722,7.57256 2.32834,1.28172 5.10656,2.82448 6.17371,3.42836 2.62916,1.48778 8.2105,4.59294 10.58366,5.88828 l 1.94014,1.05896 0.0961,-28.81384 c 0.0617,-18.54708 -0.0346,-29.69429 -0.26972,-31.283824 -0.60815,-4.112151 -4.08354,-10.07245 -7.53045,-12.913756 -1.52812,-1.259632 -5.49213,-3.766254 -8.83021,-5.584281 -1.52671,-0.831493 -3.34072,-1.895271 -4.03115,-2.363806 -0.97842,-0.663976 -1.64682,-1.007546 -2.30646,-1.049463 z M 35.056479,111.98742 v 24.37905 c 0,27.02533 -0.03843,26.519 2.325996,31.00721 1.460382,2.77214 5.337179,6.81976 8.623982,9.00482 1.305717,0.86803 2.53763,1.57866 2.737902,1.57866 0.200272,0 0.417234,0.13084 0.481914,0.29115 0.06468,0.16031 1.784376,1.21972 3.821666,2.3543 2.03729,1.13458 3.756985,2.194 3.821665,2.35431 0.06467,0.16032 0.242641,0.2917 0.395626,0.2917 0.365083,0 7.093353,3.80612 7.777377,4.39958 0.291041,0.25252 1.322753,0.87304 2.29289,1.37917 2.657656,1.38653 4.471741,2.43004 5.645667,3.24786 0.581399,0.40503 2.32697,1.43634 3.879192,2.29172 1.55222,0.85539 3.084014,1.71468 3.403789,1.90948 0.319777,0.19479 2.224474,1.29402 4.233029,2.4426 2.008555,1.14858 3.731711,2.18075 3.828721,2.29396 0.237084,0.27666 3.500871,2.28748 6.481962,3.99332 1.333987,0.76334 3.397953,1.59959 4.586324,1.85807 v -0.001 c 6.669569,1.45064 10.957509,0.23359 21.977559,-6.23865 6.55233,-3.84828 6.72807,-3.95082 11.05092,-6.44766 2.0373,-1.17671 4.10126,-2.38949 4.58633,-2.69463 0.48507,-0.30513 2.23159,-1.32542 3.88082,-2.26769 7.745,-4.425 10.80128,-6.24884 11.28862,-6.73601 0.5911,-0.59087 0.65339,-0.5336 -2.4557,-2.25986 -0.8806,-0.48893 -2.79193,-1.58409 -4.24714,-2.43366 -4.65486,-2.71757 -7.15507,-4.14538 -10.40674,-5.94192 -3.84457,-2.12413 -10.05415,-5.6216 -14.77382,-8.32138 -1.91663,-1.09637 -3.53757,-1.99331 -3.60187,-1.99331 -0.0643,0 -1.11529,-0.6334 -2.33576,-1.40767 l -2.21909,-1.40766 -11.90621,-0.003 -11.906205,-0.003 v 16.40414 c 0,13.93984 -0.07552,16.40414 -0.501451,16.40414 -0.475679,0 -6.181228,-3.36737 -6.55414,-3.86815 -0.09701,-0.13028 -1.684805,-1.16146 -3.528067,-2.29171 -1.843262,-1.13025 -3.430515,-2.1598 -3.527525,-2.28781 -0.09701,-0.128 -0.771865,-0.59447 -1.499469,-1.03661 L 71.39215,181.4277 v -30.83956 -30.83901 h 23.301198 c 25.828952,0 24.445772,-0.12393 26.334322,2.35431 0.84131,1.10399 0.98502,1.61599 0.96492,3.44009 -0.0277,2.51503 -0.96322,4.3596 -2.78024,5.48258 -1.11758,0.69074 -1.69834,0.71696 -15.8592,0.71696 H 88.654769 l 0.09986,3.79271 0.100399,3.79215 14.463932,0.10505 c 10.21072,0.0739 15.06568,-0.0194 16.51044,-0.31685 5.3847,-1.10847 9.67202,-6.28815 10.04747,-12.13867 0.40442,-6.30165 -3.74541,-12.30644 -9.9525,-14.40245 -1.5826,-0.53447 -5.4664,-0.58732 -43.303339,-0.58732 z m 98.307761,40.43729 c -0.72935,-0.0683 -1.22486,0.24122 -1.99224,0.88125 -0.79052,0.65933 -0.81838,0.76862 -0.29088,1.13664 0.98834,0.68954 5.06246,3.00282 14.04171,7.97212 1.84327,1.0201 4.22469,2.37079 5.29183,3.00142 2.00518,1.18495 9.42125,5.38235 12.52326,7.08806 0.97014,0.53345 2.07732,1.18478 2.46004,1.44734 0.94561,0.64874 0.92753,0.65544 2.4188,-0.87175 l 1.31766,-1.34955 -0.98174,-0.43756 c -0.53978,-0.24083 -2.0129,-1.03968 -3.27408,-1.77537 -1.26118,-0.7357 -4.6743,-2.65131 -7.58472,-4.25652 -2.91042,-1.60523 -6.16481,-3.43205 -7.23197,-4.05983 -1.06715,-0.62778 -3.52793,-1.97683 -5.4682,-2.99806 -1.94028,-1.02122 -3.76561,-2.05337 -4.05666,-2.2934 -0.29104,-0.24002 -1.99137,-1.18439 -3.77825,-2.09892 -1.70204,-0.87111 -2.66521,-1.31762 -3.39456,-1.38587 z" /></g></g></svg>
